<svg width="17" height="8" viewBox="0 0 17 8" fill="none" xmlns="http://www.w3.org/2000/svg">
<path d="M2.88836 4.97783C2.63019 4.67392 2.44312 4.20741 2.44312 3.66438C2.44312 3.12112 2.63022 2.6547 2.88836 2.35084C3.14818 2.04283 3.48721 1.86878 3.85626 1.86816C4.22528 1.86878 4.56428 2.04283 4.82413 2.35084C5.08247 2.6547 5.26946 3.12112 5.26946 3.66438C5.26946 4.20741 5.08244 4.67392 4.82413 4.97783C4.56431 5.28578 4.22528 5.45983 3.85626 5.46098C3.48721 5.45983 3.14818 5.28578 2.88836 4.97783ZM4.49919 4.26604C4.65315 4.07984 4.72125 3.86937 4.72125 3.66438C4.72125 3.45939 4.65318 3.24892 4.49919 3.06262C4.34656 2.88052 4.1162 2.75142 3.85626 2.75237C3.59608 2.75142 3.36557 2.88052 3.2133 3.06262C3.05919 3.24892 2.99112 3.45939 2.99112 3.66438C2.99112 3.86937 3.05919 4.07984 3.2133 4.26604C3.36557 4.4482 3.59608 4.57724 3.85626 4.57648C4.1162 4.57729 4.34656 4.44824 4.49919 4.26604Z" fill="#1B4DFF"/>
<path d="M7.05608 4.97783C6.79792 4.67392 6.61084 4.20741 6.61084 3.66438C6.61084 3.12112 6.79795 2.6547 7.05608 2.35084C7.3159 2.04283 7.65494 1.86878 8.02398 1.86816C8.393 1.86878 8.732 2.04283 8.99185 2.35084C9.25019 2.6547 9.43719 3.12112 9.43719 3.66438C9.43719 4.20741 9.25017 4.67392 8.99185 4.97783C8.73203 5.28578 8.393 5.45983 8.02398 5.46098C7.65494 5.45983 7.3159 5.28578 7.05608 4.97783ZM8.66691 4.26604C8.82087 4.07984 8.88898 3.86937 8.88898 3.66438C8.88898 3.45939 8.8209 3.24892 8.66691 3.06262C8.51428 2.88052 8.28392 2.75142 8.02398 2.75237C7.76381 2.75142 7.5333 2.88052 7.38102 3.06262C7.22691 3.24892 7.15884 3.45939 7.15884 3.66438C7.15884 3.86937 7.22691 4.07984 7.38102 4.26604C7.5333 4.4482 7.76381 4.57724 8.02398 4.57648C8.28392 4.57729 8.51428 4.44824 8.66691 4.26604Z" fill="#1B4DFF"/>
<path d="M16.0377 2.37386C15.906 2.1783 15.7534 2.04537 15.5801 1.97496C15.4086 1.90454 15.1547 1.86939 14.8184 1.86939H14.4961C14.4958 1.86872 14.4952 1.86816 14.4924 1.86816C14.1504 1.86816 14.1335 2.16028 14.1335 2.37108L14.1321 2.37253C14.1321 2.37409 14.1318 2.37531 14.1318 2.37687C14.1318 2.37843 14.1411 2.40813 14.1321 2.38121L14.1327 7.44867C14.1327 7.70018 14.2682 7.90409 14.4354 7.90409C14.6018 7.90409 14.7367 7.70196 14.7379 7.45201C14.7379 7.45089 14.7381 7.44978 14.7381 7.44878C14.7381 7.44778 14.7379 7.44656 14.7379 7.44555V2.71026H14.938C15.5116 2.71026 15.7985 3.02184 15.7985 3.6449C15.7985 4.16606 15.6161 4.4762 15.2518 4.57554V4.57988C15.2488 4.57977 14.8213 4.57988 14.8184 4.57988C14.6618 4.57955 14.738 4.84219 14.7379 5.07791C14.7376 5.3134 14.5812 5.43499 14.7379 5.43532C14.7411 5.43532 15.2486 5.43009 15.2518 5.42998V5.43532C15.5612 5.3846 15.8161 5.23097 16.0142 4.97056C16.2603 4.64729 16.3833 4.20923 16.3833 3.65658C16.3834 3.14042 16.2681 2.71282 16.0377 2.37386Z" fill="#1B4DFF"/>
<path d="M1.78417 2.46981C1.66089 2.27425 1.51809 2.14132 1.35583 2.0709C1.19524 2.00049 0.957536 1.96534 0.642787 1.96534H0.340983C0.340775 1.96467 0.340152 1.96411 0.337522 1.96411C0.0173739 1.96411 0.00152308 2.25623 0.00152308 2.46703L0.000276732 2.46848C0.000276732 2.47003 0 2.47126 0 2.47282C0 2.47437 0.00865249 2.50407 0.000276732 2.47715L0.000830197 7.54462C0.000830197 7.79613 0.127643 8.00004 0.284152 8.00004C0.439969 8.00004 0.566229 7.79791 0.567336 7.54795C0.567336 7.54684 0.567543 7.54573 0.567543 7.54473C0.567543 7.54373 0.567336 7.5425 0.567336 7.5415V2.8062H0.754718C1.29174 2.8062 1.56024 3.11779 1.56024 3.74085C1.56024 4.26201 1.38955 4.57215 1.04849 4.67149V4.67583C1.04565 4.67572 0.645487 4.67583 0.642787 4.67583C0.496108 4.67549 0.567475 4.93813 0.567336 5.17385C0.567129 5.40935 0.420657 5.53094 0.567336 5.53127C0.570382 5.53127 1.04545 5.52604 1.04849 5.52593V5.53127C1.33811 5.48054 1.57672 5.32692 1.76223 5.06651C1.9926 4.74324 2.10778 4.30517 2.10778 3.75253C2.10785 3.23637 1.99994 2.80876 1.78417 2.46981Z" fill="#1B4DFF"/>
<path d="M11.2535 4.97783C10.9781 4.67392 10.7783 4.20741 10.7783 3.66438C10.7783 3.12112 10.9781 2.6547 11.2535 2.35084C11.5314 2.04283 11.893 1.86878 12.2873 1.86816C12.6814 1.86878 13.0433 2.04283 13.3209 2.35084C13.5965 2.6547 13.7963 3.12112 13.7963 3.66438C13.7963 4.20741 13.5965 4.67392 13.3209 4.97783C13.0433 5.28578 12.6814 5.45983 12.2873 5.46098C11.893 5.45983 11.5313 5.28578 11.2535 4.97783ZM12.9737 4.26604C13.1383 4.07984 13.2108 3.86937 13.2108 3.66438C13.2108 3.45939 13.1383 3.24892 12.9737 3.06262C12.811 2.88052 12.5649 2.75142 12.2873 2.75237C12.0096 2.75142 11.7634 2.88052 11.6008 3.06262C11.4361 3.24892 11.3634 3.45939 11.3634 3.66438C11.3634 3.86937 11.4361 4.07984 11.6008 4.26604C11.7634 4.4482 12.0096 4.57724 12.2873 4.57648C12.5649 4.57729 12.811 4.44824 12.9737 4.26604Z" fill="#1B4DFF"/>
<path d="M6.96327 0.809975H6.15743V0.41128C6.15743 0.184083 6.03654 0 5.8874 0C5.73827 0 5.61725 0.184083 5.61725 0.41128V0.809975H5.60474V1.63273H5.61725V5.16816C5.61725 5.21318 5.62322 5.25587 5.63198 5.29649C5.65553 5.61446 5.73774 5.90392 5.8633 6.1259C6.01165 6.39056 6.22634 6.56287 6.46298 6.56287H6.46397C6.61264 6.56287 6.73312 6.36472 6.73312 6.12063C6.73312 5.87626 6.61264 5.6782 6.46397 5.6782C6.38575 5.67758 6.31562 5.62432 6.25775 5.52388C6.20101 5.42316 6.16267 5.27836 6.16267 5.1105C6.16267 5.08155 6.16075 5.05341 6.15743 5.02599V1.63273H6.96327C7.11264 1.63273 7.23348 1.44855 7.23348 1.22164C7.23348 0.994154 7.11261 0.809975 6.96327 0.809975Z" fill="#1B4DFF"/>
<path d="M11.2109 0.809975H10.3577V0.41128C10.3577 0.184083 10.2297 0 10.0718 0C9.91385 0 9.78571 0.184083 9.78571 0.41128V0.809975H9.77246V1.63273H9.78571V5.16816C9.78571 5.21318 9.79203 5.25587 9.80131 5.29649C9.82625 5.61446 9.91329 5.90392 10.0462 6.1259C10.2033 6.39056 10.4306 6.56287 10.6812 6.56287H10.6822C10.8396 6.56287 10.9672 6.36472 10.9672 6.12063C10.9672 5.87626 10.8396 5.6782 10.6822 5.6782C10.5994 5.67758 10.5252 5.62432 10.4639 5.52388C10.4038 5.42316 10.3632 5.27836 10.3632 5.1105C10.3632 5.08155 10.3612 5.05341 10.3577 5.02599V1.63273H11.2109C11.3691 1.63273 11.497 1.44855 11.497 1.22164C11.497 0.994154 11.369 0.809975 11.2109 0.809975Z" fill="#1B4DFF"/>
<rect width="0.910179" height="0.958083" rx="0.45509" transform="matrix(-0.94239 0.334517 0.334517 0.94239 8.90552 2.44312)" fill="#1B4DFF"/>
<rect width="0.910179" height="0.958083" rx="0.45509" transform="matrix(-0.94239 0.334517 0.334517 0.94239 13.1211 2.44312)" fill="#1B4DFF"/>
<path fill-rule="evenodd" clip-rule="evenodd" d="M12.2293 6.53177C12.2018 6.52562 12.1731 6.52765 12.1466 6.5373C12.0051 6.58879 12.0169 6.80849 12.1512 6.8766C12.2022 6.90247 12.2456 6.92966 12.2807 6.95792C12.4008 7.05453 12.4195 7.15968 12.3347 7.26107C12.2498 7.36245 12.0649 7.45586 11.8016 7.53036C11.5383 7.60485 11.2075 7.65733 10.848 7.68166C10.4885 7.70598 10.1151 7.70114 9.77175 7.66771C9.42837 7.63427 9.12915 7.57362 8.90916 7.49286C8.68917 7.4121 8.55753 7.31459 8.52966 7.21174C8.52322 7.188 8.51741 7.16081 8.5113 7.13226C8.48583 7.01313 8.45529 6.87031 8.35368 6.85597L8.07201 6.81621C8.02468 6.80953 7.97607 6.81756 7.93524 6.84241C7.73104 6.96667 7.64231 7.10289 7.67888 7.23783C7.71906 7.38611 7.90886 7.5267 8.22604 7.64314C8.54321 7.75957 8.97461 7.84701 9.46969 7.89522C9.96477 7.94343 10.503 7.95041 11.0213 7.91534C11.5396 7.88026 12.0166 7.80459 12.3962 7.6972C12.7758 7.5898 13.0424 7.45512 13.1648 7.30895C13.2871 7.16277 13.2602 7.01116 13.087 6.87188C12.9198 6.73736 12.6229 6.61973 12.2293 6.53177Z" fill="#1B4DFF"/>
</svg>
