<svg width="10" height="10" viewBox="0 0 10 10" fill="none" xmlns="http://www.w3.org/2000/svg">
<path d="M2.20671 2.68319C1.98734 2.47063 1.63436 2.45101 1.39295 2.66962C0.886307 3.12841 0.49933 3.66893 0.263098 4.25275C-0.0368798 4.9941 -0.081352 5.77457 0.134893 6.50266C0.351139 7.23076 0.819142 7.87633 1.48405 8.3637C2.14897 8.85108 2.98324 9.16007 3.8891 9.25447C4.79496 9.34887 5.73487 9.22476 6.59868 8.89669C7.46249 8.56862 8.21441 8.05017 8.76632 7.40212C9.31822 6.75407 9.64725 6.00326 9.71483 5.23769C9.76519 4.66724 9.66883 4.10621 9.43531 3.59088C9.2951 3.28148 8.91461 3.19818 8.59701 3.35967V3.35967C8.19772 3.56271 8.06383 4.06817 8.16908 4.48609C8.23082 4.73128 8.25124 4.98619 8.22849 5.24387C8.18162 5.77487 7.9534 6.29563 7.57061 6.74512C7.18781 7.1946 6.66628 7.55419 6.06714 7.78174C5.46801 8.00929 4.81609 8.09537 4.18779 8.0299C3.55949 7.96442 2.98084 7.75011 2.51966 7.41207C2.05848 7.07402 1.73387 6.62626 1.58389 6.12126C1.4339 5.61625 1.46474 5.07492 1.67281 4.56072C1.78635 4.28012 1.95009 4.01394 2.15687 3.77106C2.43272 3.44704 2.49324 2.96082 2.20671 2.68319V2.68319Z" fill="white"/>
<circle cx="5" cy="5" r="1" fill="white"/>
<path d="M10 0C10 0.552277 7.98528 2 5.5 2C3.01472 2 1 0.552277 1 0C1 0 3.01472 0.500039 5.5 0.500039C7.98528 0.500039 10 0 10 0Z" fill="white"/>
</svg>
